<svg width="21" height="20" viewBox="0 0 21 20" fill="none" xmlns="http://www.w3.org/2000/svg">
<path d="M15.7246 1.58179C15.9186 1.45373 16.1827 1.47562 16.3535 1.64624L19.0205 4.31323C19.114 4.40689 19.1669 4.53442 19.167 4.66675C19.1669 4.79919 19.1141 4.92658 19.0205 5.02026L9.08789 14.9519C8.99805 15.0417 8.89212 15.1137 8.77539 15.1638L4.19727 17.1257C4.00942 17.2062 3.79105 17.1647 3.64648 17.0203C3.50215 16.8757 3.45964 16.6573 3.54004 16.4695L5.50293 11.8914C5.55304 11.7746 5.62498 11.6677 5.71484 11.5779L15.6465 1.64624L15.7246 1.58179ZM6.42188 12.2849L5.58008 14.2468L6.41797 15.0847L8.38086 14.2449L17.959 4.66577L16 2.70679L6.42188 12.2849Z" fill="#3B82F6"/>
<path d="M15.7246 1.58179L15.5869 1.37315C15.5795 1.37803 15.5724 1.3833 15.5655 1.38894L15.7246 1.58179ZM16.3535 1.64624L16.5303 1.46946L16.5302 1.46935L16.3535 1.64624ZM19.0205 4.31323L19.1974 4.13662L19.1973 4.13646L19.0205 4.31323ZM19.167 4.66675L19.417 4.66691L19.417 4.66657L19.167 4.66675ZM19.0205 5.02026L19.1973 5.19705L19.1973 5.19699L19.0205 5.02026ZM9.08789 14.9519L9.26461 15.1287L9.26466 15.1287L9.08789 14.9519ZM8.77539 15.1638L8.87386 15.3936L8.87394 15.3936L8.77539 15.1638ZM4.19727 17.1257L4.09879 16.8959L4.09879 16.8959L4.19727 17.1257ZM3.64648 17.0203L3.46959 17.1969L3.46979 17.1971L3.64648 17.0203ZM3.54004 16.4695L3.31027 16.371L3.31022 16.3711L3.54004 16.4695ZM5.50293 11.8914L5.27318 11.7928L5.27316 11.7928L5.50293 11.8914ZM5.71484 11.5779L5.53807 11.4011L5.71484 11.5779ZM15.6465 1.64624L15.4874 1.4534C15.4812 1.45847 15.4753 1.46383 15.4697 1.46946L15.6465 1.64624ZM6.42188 12.2849L6.2451 12.1081C6.22263 12.1306 6.20466 12.1571 6.19213 12.1863L6.42188 12.2849ZM5.58008 14.2468L5.35033 14.1482C5.31001 14.2422 5.33099 14.3513 5.4033 14.4236L5.58008 14.2468ZM6.41797 15.0847L6.24119 15.2615C6.31344 15.3337 6.42238 15.3548 6.51631 15.3146L6.41797 15.0847ZM8.38086 14.2449L8.4792 14.4747C8.50849 14.4622 8.53512 14.4442 8.55765 14.4216L8.38086 14.2449ZM17.959 4.66577L18.1358 4.84254C18.2334 4.74491 18.2334 4.58662 18.1358 4.48899L17.959 4.66577ZM16 2.70679L16.1768 2.53001C16.0791 2.43238 15.9209 2.43238 15.8232 2.53001L16 2.70679ZM15.7246 1.58179L15.8623 1.79043C15.9588 1.72675 16.0913 1.73766 16.1769 1.82314L16.3535 1.64624L16.5302 1.46935C16.2741 1.21357 15.8784 1.18072 15.5869 1.37315L15.7246 1.58179ZM16.3535 1.64624L16.1767 1.82302L18.8437 4.49001L19.0205 4.31323L19.1973 4.13646L16.5303 1.46946L16.3535 1.64624ZM19.0205 4.31323L18.8436 4.48985C18.8904 4.53676 18.9169 4.60089 18.917 4.66692L19.167 4.66675L19.417 4.66657C19.4169 4.46795 19.3376 4.27701 19.1974 4.13662L19.0205 4.31323ZM19.167 4.66675L18.917 4.66659C18.9169 4.73283 18.8905 4.79672 18.8437 4.84354L19.0205 5.02026L19.1973 5.19699C19.3378 5.05645 19.4169 4.86555 19.417 4.66691L19.167 4.66675ZM19.0205 5.02026L18.8437 4.84348L8.91112 14.7751L9.08789 14.9519L9.26466 15.1287L19.1973 5.19705L19.0205 5.02026ZM9.08789 14.9519L8.91117 14.7751C8.84352 14.8427 8.76404 14.8967 8.67684 14.9341L8.77539 15.1638L8.87394 15.3936C9.0202 15.3308 9.15258 15.2407 9.26461 15.1287L9.08789 14.9519ZM8.77539 15.1638L8.67692 14.934L4.09879 16.8959L4.19727 17.1257L4.29574 17.3555L8.87386 15.3936L8.77539 15.1638ZM4.19727 17.1257L4.09879 16.8959C4.00442 16.9364 3.89513 16.9153 3.82318 16.8434L3.64648 17.0203L3.46979 17.1971C3.68698 17.4141 4.01441 17.4761 4.29575 17.3555L4.19727 17.1257ZM3.64648 17.0203L3.82338 16.8436C3.75088 16.771 3.72985 16.6613 3.76986 16.5679L3.54004 16.4695L3.31022 16.3711C3.18943 16.6532 3.25342 16.9805 3.46959 17.1969L3.64648 17.0203ZM3.54004 16.4695L3.76981 16.568L5.7327 11.9899L5.50293 11.8914L5.27316 11.7928L3.31027 16.371L3.54004 16.4695ZM5.50293 11.8914L5.73268 11.9899C5.77044 11.9019 5.82454 11.8217 5.89162 11.7547L5.71484 11.5779L5.53807 11.4011C5.42542 11.5138 5.33564 11.6472 5.27318 11.7928L5.50293 11.8914ZM5.71484 11.5779L5.89162 11.7547L15.8233 1.82302L15.6465 1.64624L15.4697 1.46946L5.53807 11.4011L5.71484 11.5779ZM15.6465 1.64624L15.8056 1.83908L15.8837 1.77463L15.7246 1.58179L15.5655 1.38894L15.4874 1.4534L15.6465 1.64624ZM6.42188 12.2849L6.19213 12.1863L5.35033 14.1482L5.58008 14.2468L5.80982 14.3454L6.65162 12.3835L6.42188 12.2849ZM5.58008 14.2468L5.4033 14.4236L6.24119 15.2615L6.41797 15.0847L6.59475 14.9079L5.75685 14.07L5.58008 14.2468ZM6.41797 15.0847L6.51631 15.3146L8.4792 14.4747L8.38086 14.2449L8.28252 14.015L6.31963 14.8549L6.41797 15.0847ZM8.38086 14.2449L8.55765 14.4216L18.1358 4.84254L17.959 4.66577L17.7822 4.489L8.20407 14.0681L8.38086 14.2449ZM17.959 4.66577L18.1358 4.48899L16.1768 2.53001L16 2.70679L15.8232 2.88356L17.7822 4.84255L17.959 4.66577ZM16 2.70679L15.8232 2.53001L6.2451 12.1081L6.42188 12.2849L6.59865 12.4617L16.1768 2.88356L16 2.70679Z" fill="#3B82F6"/>
</svg>
