<svg width="21" height="23" viewBox="0 0 21 23" fill="none" xmlns="http://www.w3.org/2000/svg">
<path d="M17.5112 9.62407C16.9096 8.63892 16.1507 7.75893 15.2647 7.01904C15.2647 7.01904 15.3509 7.09177 15.2647 7.01489C15.1277 6.89263 14.1591 6.24705 14.1591 6.24705C14.1591 6.24705 14.1591 6.24266 14.1591 6.24515V6.24266C12.9012 5.49548 11.4631 5.10606 10 5.11641C5.8742 5.11641 3.52307 7.9407 2.48878 9.62407C2.16925 10.1409 2 10.7365 2 11.3441C2 11.9517 2.16925 12.5473 2.48878 13.0641C3.0904 14.0493 3.84927 14.9292 4.73528 15.6691C4.73528 15.6691 5.78007 16.4152 5.85583 16.4496C5.93713 16.4147 5.62646 16.2893 5.84554 16.4435C7.10192 17.1906 8.53832 17.5807 10 17.5718C14.1258 17.5718 16.4769 14.7475 17.5112 13.0641C17.8307 12.5473 18 11.9517 18 11.3441C18 10.7365 17.8307 10.1409 17.5112 9.62407ZM3.62436 12.3664C3.43452 12.0592 3.33397 11.7052 3.33397 11.3441C3.33397 10.983 3.43452 10.629 3.62436 10.3218C4.51337 8.87835 6.52262 6.44925 10 6.44925C11.1064 6.44305 12.1973 6.70971 13.1762 7.22563L11.8347 8.56713C11.1948 8.14236 10.4278 7.95202 9.66361 8.02843C8.89945 8.10483 8.18525 8.44327 7.64221 8.98631C7.09917 9.52935 6.76073 10.2436 6.68433 11.0077C6.60792 11.7719 6.79825 12.5389 7.22303 13.1787L5.6836 14.7182C4.8673 14.0582 4.17072 13.2627 3.62436 12.3664ZM16.3756 12.3664C15.4866 13.8098 13.4774 16.2389 10 16.2389C8.85432 16.2389 6.68433 15.6691 5.6836 14.7182L7.22303 13.1787L8.16535 14.1211C8.80515 14.5458 9.57222 14.7362 10.3364 14.6598C11.1006 14.5833 11.8148 14.2449 12.3578 13.7019C12.9008 13.1588 13.2393 12.4446 13.3157 11.6805C13.3921 10.9163 13.1762 9.25545 11.8347 8.56713L13.1762 7.22563C14.155 7.74155 15.8293 9.42551 16.3756 10.3218C16.5655 10.629 16.666 10.983 16.666 11.3441C16.666 11.7052 16.5655 12.0592 16.3756 12.3664Z" fill="#3B82F6"/>
</svg>
