<svg width="20" height="21" viewBox="0 0 20 21" fill="none" xmlns="http://www.w3.org/2000/svg">
<path d="M10 3.66699C10.2761 3.66699 10.5 3.89085 10.5 4.16699V10H16.334L16.4346 10.0098C16.6622 10.0565 16.834 10.2585 16.834 10.5C16.834 10.7415 16.6622 10.9435 16.4346 10.9902L16.334 11H10.5V16.834C10.4996 17.1098 10.2759 17.334 10 17.334C9.72407 17.334 9.50035 17.1098 9.5 16.834V11H3.66699C3.39085 11 3.16699 10.7761 3.16699 10.5C3.16699 10.2239 3.39085 10 3.66699 10H9.5V4.16699C9.5 3.89085 9.72386 3.66699 10 3.66699Z" fill="white"/>
<path d="M10.5 10H10V10.5H10.5V10ZM16.334 10L16.3823 9.50234L16.3582 9.5H16.334V10ZM16.4346 10.0098L16.5352 9.51999L16.5092 9.51466L16.4829 9.51211L16.4346 10.0098ZM16.4346 10.9902L16.4829 11.4879L16.5092 11.4853L16.5352 11.48L16.4346 10.9902ZM16.334 11V11.5H16.3582L16.3823 11.4977L16.334 11ZM10.5 11V10.5H10V11H10.5ZM10.5 16.834L11 16.8346V16.834H10.5ZM9.5 16.834H9L9 16.8346L9.5 16.834ZM9.5 11H10V10.5H9.5V11ZM9.5 10V10.5H10V10H9.5ZM10 3.66699V4.16699H10.5H11C11 3.61471 10.5523 3.16699 10 3.16699V3.66699ZM10.5 4.16699H10V10H10.5H11V4.16699H10.5ZM10.5 10V10.5H16.334V10V9.5H10.5V10ZM16.334 10L16.2857 10.4977L16.3863 10.5074L16.4346 10.0098L16.4829 9.51211L16.3823 9.50234L16.334 10ZM16.4346 10.0098L16.334 10.4995L16.334 10.5H16.834H17.334C17.334 10.0162 16.9904 9.61352 16.5352 9.51999L16.4346 10.0098ZM16.834 10.5H16.334L16.334 10.5005L16.4346 10.9902L16.5352 11.48C16.9904 11.3865 17.334 10.9838 17.334 10.5H16.834ZM16.4346 10.9902L16.3863 10.4926L16.2857 10.5023L16.334 11L16.3823 11.4977L16.4829 11.4879L16.4346 10.9902ZM16.334 11V10.5H10.5V11V11.5H16.334V11ZM10.5 11H10V16.834H10.5H11V11H10.5ZM10.5 16.834L10 16.8333L10 16.834V17.334V17.834C10.5527 17.834 10.9993 17.3855 11 16.8346L10.5 16.834ZM10 17.334V16.834L10 16.8333L9.5 16.834L9 16.8346C9.0007 17.3855 9.4473 17.834 10 17.834V17.334ZM9.5 16.834H10V11H9.5H9V16.834H9.5ZM9.5 11V10.5H3.66699V11V11.5H9.5V11ZM3.66699 11V10.5H3.16699H2.66699C2.66699 11.0523 3.11471 11.5 3.66699 11.5V11ZM3.16699 10.5H3.66699V10V9.5C3.11471 9.5 2.66699 9.94772 2.66699 10.5H3.16699ZM3.66699 10V10.5H9.5V10V9.5H3.66699V10ZM9.5 10H10V4.16699H9.5H9V10H9.5ZM9.5 4.16699H10V3.66699V3.16699C9.44772 3.16699 9 3.61471 9 4.16699H9.5Z" fill="white"/>
</svg>
