<svg width="40" height="40" viewBox="0 0 40 40" fill="none" xmlns="http://www.w3.org/2000/svg">
<rect width="40" height="40" rx="20" fill="#F89837"/>
<g clip-path="url(#clip0_1698_18976)">
<path d="M18.6667 26.3333V27C18.6667 27.552 18.2187 28 17.6667 28H17C16.448 28 16 27.552 16 27V26.3333C16 25.7813 16.448 25.3333 17 25.3333H17.6667C18.2187 25.3333 18.6667 25.7813 18.6667 26.3333ZM23 25.3333H22.3333C21.7813 25.3333 21.3333 25.7813 21.3333 26.3333V27C21.3333 27.552 21.7813 28 22.3333 28H23C23.552 28 24 27.552 24 27V26.3333C24 25.7813 23.552 25.3333 23 25.3333ZM13.6667 25.3333H13C12.448 25.3333 12 25.7813 12 26.3333V27C12 27.552 12.448 28 13 28H13.6667C14.2187 28 14.6667 27.552 14.6667 27V26.3333C14.6667 25.7813 14.2187 25.3333 13.6667 25.3333ZM12.6667 22.6667V20C12.6667 19.2633 13.2633 18.6667 14 18.6667H16.6667C17.4033 18.6667 18 19.2633 18 20V20.6667H19.3333V17.3333H18.6667C17.93 17.3333 17.3333 16.7367 17.3333 16V13.3333C17.3333 12.5967 17.93 12 18.6667 12H21.3333C22.07 12 22.6667 12.5967 22.6667 13.3333V16C22.6667 16.7367 22.07 17.3333 21.3333 17.3333H20.6667V20.6667H22V20C22 19.2633 22.5967 18.6667 23.3333 18.6667H26C26.7367 18.6667 27.3333 19.2633 27.3333 20V22.6667C27.3333 23.4033 26.7367 24 26 24H23.3333C22.5967 24 22 23.4033 22 22.6667V22H18V22.6667C18 23.4033 17.4033 24 16.6667 24H14C13.2633 24 12.6667 23.4033 12.6667 22.6667ZM23.724 21.3333L23.1953 21.862C22.9353 22.122 22.9353 22.5447 23.1953 22.8047C23.456 23.0653 23.878 23.0653 24.138 22.8047L24.6667 22.276L25.1953 22.8047C25.4553 23.0647 25.878 23.0647 26.138 22.8047C26.398 22.544 26.398 22.122 26.138 21.862L25.6093 21.3333L26.138 20.8047C26.398 20.544 26.398 20.122 26.138 19.862C25.8773 19.6013 25.4553 19.6013 25.1953 19.862L24.6667 20.3907L24.138 19.862C23.878 19.6013 23.4553 19.6013 23.1953 19.862C22.9353 20.1227 22.9353 20.5447 23.1953 20.8047L23.724 21.3333ZM20.6187 15.6287L20.6213 15.626L21.7053 14.4993C21.9553 14.24 21.9533 13.8287 21.7013 13.5713C21.4387 13.3027 21.006 13.304 20.7453 13.5747L19.684 14.6767L19.3347 14.3547C19.068 14.1093 18.6547 14.122 18.4033 14.3827C18.144 14.652 18.1573 15.082 18.4327 15.3353L18.7373 15.6153C19.248 16.1253 20.1233 16.124 20.6193 15.628L20.6187 15.6287ZM13.7653 22.0047L14.07 22.2847C14.5807 22.7947 15.456 22.7933 15.952 22.2973L15.9547 22.2947L17.0387 21.168C17.2887 20.9087 17.2867 20.4973 17.0347 20.24C16.772 19.9713 16.3393 19.9727 16.0787 20.2433L15.0173 21.3453L14.668 21.0233C14.4013 20.778 13.988 20.7907 13.7367 21.0513C13.4773 21.3207 13.4907 21.7507 13.766 22.004L13.7653 22.0047ZM27 25.3333H26.3333C25.7813 25.3333 25.3333 25.7813 25.3333 26.3333V27C25.3333 27.552 25.7813 28 26.3333 28H27C27.552 28 28 27.552 28 27V26.3333C28 25.7813 27.552 25.3333 27 25.3333Z" fill="white"/>
</g>
<defs>
<clipPath id="clip0_1698_18976">
<rect width="16" height="16" fill="white" transform="translate(12 12)"/>
</clipPath>
</defs>
</svg>
