<svg width="41" height="40" viewBox="0 0 41 40" fill="none" xmlns="http://www.w3.org/2000/svg">
<rect x="0.833374" width="40" height="40" rx="20" fill="#F89837"/>
<g clip-path="url(#clip0_1583_682)">
<path d="M16.4616 20.7533C17.1716 20.7533 17.8457 20.9596 18.421 21.3111C17.2144 21.8986 16.2291 22.9714 15.7438 24.2505H13.8387C13.551 24.2505 13.2826 24.1098 13.1191 23.8728C12.9556 23.6359 12.9189 23.3351 13.0212 23.0658C13.5458 21.6827 14.9281 20.7533 16.4616 20.7533ZM20.8332 20.7533C22.282 20.7533 23.4562 19.5791 23.4562 18.1303C23.4562 16.6816 22.282 15.5073 20.8332 15.5073C19.3845 15.5073 18.2103 16.6816 18.2103 18.1303C18.2103 19.5791 19.3845 20.7533 20.8332 20.7533ZM13.8894 16.3484C13.8894 17.7972 15.0636 18.9714 16.5124 18.9714C16.5237 18.9714 16.5342 18.9679 16.5456 18.9679C16.4922 18.696 16.4608 18.4171 16.4608 18.1303C16.4608 16.6274 17.224 15.3001 18.3825 14.5124C17.9069 14.0271 17.245 13.7246 16.5124 13.7246C15.0636 13.7246 13.8894 14.8997 13.8894 16.3484ZM23.2455 21.312C24.4521 21.8995 25.4374 22.9723 25.9227 24.2514H27.8278C28.1155 24.2514 28.3839 24.1107 28.5474 23.8737C28.7109 23.6368 28.7476 23.336 28.6453 23.0667C28.1207 21.6835 26.7384 20.7533 25.2048 20.7533C24.4949 20.7533 23.8208 20.9605 23.2455 21.312ZM25.2048 13.7596C24.4695 13.7596 23.8068 14.0647 23.3303 14.5517C24.4608 15.343 25.2048 16.6492 25.2048 18.1312C25.2048 18.4276 25.1742 18.717 25.1174 18.9968C25.1471 18.9976 25.1751 19.0055 25.2048 19.0055C26.6536 19.0055 27.8278 17.8313 27.8278 16.3825C27.8278 14.9338 26.6536 13.7596 25.2048 13.7596ZM20.8332 22.5019C19.2997 22.5019 17.9174 23.4313 17.3928 24.8154C17.2905 25.0846 17.3272 25.3854 17.4907 25.6224C17.6542 25.8593 17.9226 26.0001 18.2103 26.0001H23.4562C23.7439 26.0001 24.0123 25.8593 24.1758 25.6224C24.3393 25.3854 24.376 25.0846 24.2737 24.8154C23.7491 23.4322 22.3668 22.5019 20.8332 22.5019Z" fill="white"/>
</g>
<defs>
<clipPath id="clip0_1583_682">
<rect width="16" height="16" fill="white" transform="translate(12.8334 12)"/>
</clipPath>
</defs>
</svg>
