<svg width="40" height="40" viewBox="0 0 40 40" fill="none" xmlns="http://www.w3.org/2000/svg">
<rect width="40" height="40" rx="20" fill="#67B160"/>
<g clip-path="url(#clip0_1698_18973)">
<path d="M27.3332 19.3334H25.9998V18C25.9998 17.6318 25.7013 17.3334 25.3332 17.3334C24.965 17.3334 24.6665 17.6318 24.6665 18V19.3334H23.3332C22.965 19.3334 22.6665 19.6318 22.6665 20C22.6665 20.3682 22.965 20.6667 23.3332 20.6667H24.6665V22C24.6665 22.3682 24.965 22.6667 25.3332 22.6667C25.7013 22.6667 25.9998 22.3682 25.9998 22V20.6667H27.3332C27.7013 20.6667 27.9998 20.3682 27.9998 20C27.9998 19.6318 27.7013 19.3334 27.3332 19.3334Z" fill="white"/>
<path d="M18 20C20.2091 20 22 18.2091 22 16C22 13.7909 20.2091 12 18 12C15.7909 12 14 13.7909 14 16C14 18.2091 15.7909 20 18 20Z" fill="white"/>
<path d="M18 21.3334C14.6878 21.3371 12.0037 24.0212 12 27.3334C12 27.7016 12.2985 28 12.6667 28H23.3333C23.7015 28 24 27.7016 24 27.3334C23.9963 24.0212 21.3122 21.337 18 21.3334Z" fill="white"/>
</g>
<defs>
<clipPath id="clip0_1698_18973">
<rect width="16" height="16" fill="white" transform="translate(12 12)"/>
</clipPath>
</defs>
</svg>
