<svg width="40" height="40" viewBox="0 0 40 40" fill="none" xmlns="http://www.w3.org/2000/svg">
<rect width="40" height="40" rx="20" fill="#3B82F6"/>
<g clip-path="url(#clip0_1698_18979)">
<path d="M28 26.6667V28H12V26.6667C12 25.564 12.8973 24.6667 14 24.6667H26C27.1027 24.6667 28 25.564 28 26.6667ZM14 21.3747H12.6667V15.3333C12.6667 14.4653 13.226 13.732 14 13.456V12H15.3333V13.3333H23.3333V12H24.6667V13.3333H25.3333C26.436 13.3333 27.3333 14.2307 27.3333 15.3333V23.3333H21.3333V18.6667H16.6667V21.3747H15.3333V22.6667H14V21.3747ZM23.3333 18.3333C23.3333 18.8853 23.7813 19.3333 24.3333 19.3333C24.8853 19.3333 25.3333 18.8853 25.3333 18.3333C25.3333 17.7813 24.8853 17.3333 24.3333 17.3333C23.7813 17.3333 23.3333 17.7813 23.3333 18.3333ZM23.3333 21C23.3333 21.552 23.7813 22 24.3333 22C24.8853 22 25.3333 21.552 25.3333 21C25.3333 20.448 24.8853 20 24.3333 20C23.7813 20 23.3333 20.448 23.3333 21Z" fill="white"/>
</g>
<defs>
<clipPath id="clip0_1698_18979">
<rect width="16" height="16" fill="white" transform="translate(12 12)"/>
</clipPath>
</defs>
</svg>
