<svg width="41" height="40" viewBox="0 0 41 40" fill="none" xmlns="http://www.w3.org/2000/svg">
<rect x="0.5" width="40" height="40" rx="20" fill="#F6645E"/>
<g clip-path="url(#clip0_1583_746)">
<path d="M28.4729 27.03L26.6116 25.1687C26.9609 24.6413 27.1669 24.0113 27.1669 23.3333C27.1669 21.4953 25.6716 20 23.8336 20C21.9956 20 20.5002 21.4953 20.5002 23.3333C20.5002 25.1713 21.9956 26.6667 23.8336 26.6667C24.5116 26.6667 25.1416 26.4607 25.6689 26.1113L27.5302 27.9727L28.4729 27.03ZM19.1669 23.3333C19.1669 22.6167 19.3336 21.94 19.6222 21.3333H18.5002V20H19.8336V20.9387C20.6489 19.5793 22.1329 18.6667 23.8336 18.6667C23.9556 18.6667 24.0749 18.676 24.1949 18.6847L20.9129 13.0207C20.5422 12.382 19.8802 12 19.1416 12C18.4029 12 17.7396 12.3813 17.3682 13.02L12.7816 20.9207C12.4082 21.562 12.4069 22.3293 12.7769 22.9727C13.1476 23.616 13.8116 24 14.5529 24H19.2202C19.1889 23.782 19.1669 23.56 19.1669 23.3333ZM18.5002 15.3333H19.8336V18.6667H18.5002V15.3333Z" fill="white"/>
</g>
<defs>
<clipPath id="clip0_1583_746">
<rect width="16" height="16" fill="white" transform="translate(12.5 12)"/>
</clipPath>
</defs>
</svg>
