<svg width="41" height="40" viewBox="0 0 41 40" fill="none" xmlns="http://www.w3.org/2000/svg">
<rect x="0.5" width="40" height="40" rx="20" fill="#67B160"/>
<g clip-path="url(#clip0_1583_701)">
<path d="M20.5107 15.8207L14.5167 13.816L19.4513 12.1714C20.1353 11.9434 20.8753 11.9434 21.5593 12.1714L26.5053 13.82L20.5107 15.8207ZM18.3893 19.5694L19.8393 17.1534L14.542 15.3874C14.1307 15.25 13.68 15.4174 13.4567 15.7887L12.7053 17.042C12.2607 17.7834 12.6167 18.7454 13.4367 19.0187L16.824 20.148C17.4167 20.3454 18.068 20.1047 18.3893 19.5694ZM14.5053 13.812V13.8194L14.5167 13.816L14.5053 13.812ZM19.8387 27.9367V19.7447L19.532 20.2554C19.0373 21.0794 18.1693 21.552 17.2553 21.552C16.972 21.552 16.6847 21.5074 16.402 21.4127L13.8387 20.5587V23.5974C13.8387 25.032 14.7567 26.306 16.118 26.7594L19.0747 27.7447C19.324 27.8254 19.58 27.8914 19.8387 27.936V27.9367ZM28.3187 17.064L27.5533 15.7887C27.3307 15.4174 26.8793 15.25 26.468 15.3874L21.1713 17.1527L22.6213 19.5687C22.9427 20.1047 23.5933 20.3454 24.186 20.1474L27.598 19.01C28.4053 18.7407 28.756 17.7934 28.318 17.0634L28.3187 17.064ZM23.7553 21.5527C22.8413 21.5527 21.9733 21.0807 21.4787 20.256L21.172 19.7454V27.9334C21.4533 27.884 21.732 27.812 21.996 27.724H22.0027L24.8927 26.76C26.254 26.306 27.172 25.0327 27.172 23.598V20.5587L24.6087 21.4134C24.326 21.508 24.0387 21.5527 23.7553 21.5527Z" fill="white"/>
</g>
<defs>
<clipPath id="clip0_1583_701">
<rect width="16" height="16" fill="white" transform="translate(12.5 12)"/>
</clipPath>
</defs>
</svg>
