<svg width="40" height="40" viewBox="0 0 40 40" fill="none" xmlns="http://www.w3.org/2000/svg">
<rect width="40" height="40" rx="20" fill="#67B160"/>
<g clip-path="url(#clip0_1698_18973)">
<path d="M14.6667 15.6666C14.6667 15.1146 15.1147 14.6666 15.6667 14.6666H16.6667V13.6666C16.6667 13.1146 17.1147 12.6666 17.6667 12.6666C18.2187 12.6666 18.6667 13.1146 18.6667 13.6666V14.6666H19.6667C20.2187 14.6666 20.6667 15.1146 20.6667 15.6666C20.6667 16.2186 20.2187 16.6666 19.6667 16.6666H18.6667V17.6666C18.6667 18.2186 18.2187 18.6666 17.6667 18.6666C17.1147 18.6666 16.6667 18.2186 16.6667 17.6666V16.6666H15.6667C15.1147 16.6666 14.6667 16.2186 14.6667 15.6666ZM27.2813 19.9233C27.172 19.492 26.9013 19.1286 26.518 18.9013C25.7293 18.4313 24.7047 18.6913 24.2333 19.4806C23.546 20.6346 22.7667 21.5833 21.8367 22.3393C21.5887 23.0193 21.066 23.5773 20.3607 23.8566C19.69 24.1426 18.6487 24.598 17.332 24.6666C16.9927 24.6666 16.702 24.4086 16.6687 24.064C16.6333 23.6973 16.902 23.372 17.2687 23.3366C18.3233 23.2353 19.2493 22.8806 19.8547 22.624C20.3613 22.4233 20.666 21.9766 20.666 21.4513C20.666 20.95 20.3313 20.4986 19.852 20.3546C19.8467 20.3546 18.666 20 16.9993 20C15.0093 20 13.6113 20.3313 13.5393 20.346C13.2853 20.3953 13.082 20.5873 13.0193 20.8386C13.0053 20.896 12.666 22.268 12.666 23.6666C12.666 25.0653 13.0047 26.4373 13.0193 26.4946C13.082 26.7446 13.2827 26.9366 13.5353 26.9866C13.606 27.0006 15.29 27.3333 17.3327 27.3333C21.6207 27.3506 24.8707 24.9386 27.098 21.186C27.326 20.804 27.3907 20.3553 27.2807 19.9233H27.2813Z" fill="white"/>
</g>
<defs>
<clipPath id="clip0_1698_18973">
<rect width="16" height="16" fill="white" transform="translate(12 12)"/>
</clipPath>
</defs>
</svg>
