<svg width="40" height="40" viewBox="0 0 40 40" fill="none" xmlns="http://www.w3.org/2000/svg">
<rect width="40" height="40" rx="20" fill="#F89837"/>
<path d="M20.5923 15.2613H19.4077C18.7543 15.2613 18.223 14.73 18.223 14.0766C18.223 13.4233 18.7543 12.892 19.4077 12.892H20.5923C21.2457 12.892 21.777 13.4233 21.777 14.0766C21.777 14.73 21.2457 15.2613 20.5923 15.2613ZM23.554 14.0766C24.5355 14.0766 25.3311 14.8722 25.3311 15.8537V27.1081H14.6689V15.8537C14.6689 14.8722 15.4645 14.0766 16.446 14.0766H17.0383C17.0383 15.3833 18.101 16.446 19.4077 16.446H20.5923C21.899 16.446 22.9617 15.3833 22.9617 14.0766H23.554Z" fill="white"/>
</svg>
