<svg width="41" height="40" viewBox="0 0 41 40" fill="none" xmlns="http://www.w3.org/2000/svg">
<rect x="0.833374" width="40" height="40" rx="20" fill="#F9D22C"/>
<g clip-path="url(#clip0_1583_742)">
<path d="M19.8801 19.3266C20.0334 19.4133 20.2001 19.4533 20.3667 19.4533C20.7201 19.4533 21.0601 19.2666 21.2401 18.94C21.5067 18.46 21.3401 17.8466 20.8534 17.58L20.4267 17.34C20.4734 17.12 20.4934 16.8933 20.4934 16.66C20.4934 16.4266 20.4667 16.2 20.4267 15.98L20.8534 15.74C21.3334 15.4733 21.5067 14.86 21.2401 14.38C20.9734 13.9 20.3601 13.7266 19.8801 13.9933L19.4467 14.2333C19.0867 13.8933 18.6467 13.64 18.1667 13.4866V12.98C18.1667 12.4266 17.7201 11.98 17.1667 11.98C16.6134 11.98 16.1667 12.4266 16.1667 12.98V13.4866C15.6867 13.64 15.2467 13.8933 14.8867 14.2333L14.4534 13.9933C13.9734 13.7266 13.3601 13.8933 13.0934 14.38C12.8267 14.86 12.9934 15.4733 13.4801 15.74L13.9067 15.98C13.8601 16.2 13.8401 16.4266 13.8401 16.66C13.8401 16.8933 13.8667 17.12 13.9067 17.34L13.4801 17.58C13.0001 17.8466 12.8267 18.46 13.0934 18.94C13.2734 19.2666 13.6201 19.4533 13.9667 19.4533C14.1334 19.4533 14.3001 19.4133 14.4534 19.3266L14.8867 19.0866C15.2467 19.4266 15.6867 19.68 16.1667 19.8333V20.34C16.1667 20.8933 16.6134 21.34 17.1667 21.34C17.7201 21.34 18.1667 20.8933 18.1667 20.34V19.8333C18.6467 19.68 19.0867 19.4266 19.4467 19.0866L19.8801 19.3266ZM17.1667 18C16.4334 18 15.8334 17.4 15.8334 16.6666C15.8334 15.9333 16.4334 15.3333 17.1667 15.3333C17.9001 15.3333 18.5001 15.9333 18.5001 16.6666C18.5001 17.4 17.9001 18 17.1667 18ZM27.8534 24.2466L27.4267 24.0066C27.4734 23.7866 27.4934 23.56 27.4934 23.3266C27.4934 23.0933 27.4667 22.8666 27.4267 22.6466L27.8534 22.4066C28.3334 22.14 28.5067 21.5266 28.2401 21.0466C27.9734 20.5666 27.3601 20.3933 26.8801 20.66L26.4467 20.9C26.0867 20.56 25.6467 20.3066 25.1667 20.1533V19.6466C25.1667 19.0933 24.7201 18.6466 24.1667 18.6466C23.6134 18.6466 23.1667 19.0933 23.1667 19.6466V20.1533C22.6867 20.3066 22.2467 20.56 21.8867 20.9L21.4534 20.66C20.9734 20.3933 20.3601 20.56 20.0934 21.0466C19.8267 21.5266 19.9934 22.14 20.4801 22.4066L20.9067 22.6466C20.8601 22.8666 20.8401 23.0933 20.8401 23.3266C20.8401 23.56 20.8667 23.7866 20.9067 24.0066L20.4801 24.2466C20.0001 24.5133 19.8267 25.1266 20.0934 25.6066C20.2734 25.9333 20.6201 26.12 20.9667 26.12C21.1334 26.12 21.3001 26.08 21.4534 25.9933L21.8867 25.7533C22.2467 26.0933 22.6867 26.3466 23.1667 26.5V27.0066C23.1667 27.56 23.6134 28.0066 24.1667 28.0066C24.7201 28.0066 25.1667 27.56 25.1667 27.0066V26.5C25.6467 26.3466 26.0867 26.0933 26.4467 25.7533L26.8801 25.9933C27.0334 26.08 27.2001 26.12 27.3667 26.12C27.7201 26.12 28.0601 25.9333 28.2401 25.6066C28.5067 25.1266 28.3401 24.5133 27.8534 24.2466ZM24.1667 24.6666C23.4334 24.6666 22.8334 24.0666 22.8334 23.3333C22.8334 22.6 23.4334 22 24.1667 22C24.9001 22 25.5001 22.6 25.5001 23.3333C25.5001 24.0666 24.9001 24.6666 24.1667 24.6666Z" fill="white"/>
</g>
<defs>
<clipPath id="clip0_1583_742">
<rect width="16" height="16" fill="white" transform="translate(12.8334 12)"/>
</clipPath>
</defs>
</svg>
