<svg width="41" height="40" viewBox="0 0 41 40" fill="none" xmlns="http://www.w3.org/2000/svg">
<rect x="0.166748" width="40" height="40" rx="20" fill="#E9638F"/>
<g clip-path="url(#clip0_1583_738)">
<path d="M17.1667 20.6667C16.5734 20.6667 15.9934 20.4907 15.5 20.1611C15.0067 19.8314 14.6222 19.3629 14.3951 18.8147C14.168 18.2665 14.1086 17.6633 14.2244 17.0814C14.3401 16.4995 14.6259 15.9649 15.0454 15.5453C15.465 15.1258 15.9995 14.8401 16.5815 14.7243C17.1634 14.6086 17.7666 14.668 18.3148 14.895C18.863 15.1221 19.3315 15.5066 19.6612 16C19.9908 16.4933 20.1667 17.0733 20.1667 17.6667C20.1659 18.462 19.8495 19.2246 19.2871 19.787C18.7247 20.3494 17.9621 20.6658 17.1667 20.6667ZM22.1667 25.3333C22.1657 24.4496 21.8142 23.6024 21.1893 22.9775C20.5644 22.3526 19.7171 22.0011 18.8334 22H15.5001C14.6164 22.0011 13.7691 22.3526 13.1442 22.9775C12.5193 23.6024 12.1678 24.4496 12.1667 25.3333L12.1667 28H22.1667V25.3333ZM23.8334 18C23.2401 18 22.6601 17.8241 22.1667 17.4944C21.6734 17.1648 21.2888 16.6962 21.0618 16.1481C20.8347 15.5999 20.7753 14.9967 20.8911 14.4147C21.0068 13.8328 21.2925 13.2982 21.7121 12.8787C22.1317 12.4591 22.6662 12.1734 23.2481 12.0576C23.8301 11.9419 24.4333 12.0013 24.9815 12.2284C25.5296 12.4554 25.9982 12.8399 26.3278 13.3333C26.6575 13.8266 26.8334 14.4067 26.8334 15C26.8325 15.7954 26.5162 16.5579 25.9538 17.1203C25.3913 17.6828 24.6288 17.9991 23.8334 18ZM24.8334 19.3333H21.5001C21.3831 19.3387 21.2665 19.3505 21.1507 19.3687C20.9084 19.9295 20.5503 20.433 20.1001 20.846C21.0776 21.1226 21.9384 21.7103 22.5519 22.52C23.1654 23.3298 23.4983 24.3174 23.5001 25.3333H28.1667V22.6667C28.1657 21.7829 27.8142 20.9357 27.1893 20.3108C26.5644 19.6859 25.7171 19.3344 24.8334 19.3333Z" fill="white"/>
</g>
<defs>
<clipPath id="clip0_1583_738">
<rect width="16" height="16" fill="white" transform="translate(12.1667 12)"/>
</clipPath>
</defs>
</svg>
