<svg width="41" height="40" viewBox="0 0 41 40" fill="none" xmlns="http://www.w3.org/2000/svg">
<rect x="0.166748" width="40" height="40" rx="20" fill="#3B82F6"/>
<g clip-path="url(#clip0_1583_657)">
<path d="M25.2784 22.4447V22.6667C25.2784 23.4033 24.7244 24 24.0404 24H23.6277C22.9437 24 22.3897 23.4033 22.3897 22.6667C22.3897 23.4033 21.8357 24 21.1517 24H20.7391C20.0551 24 19.5011 23.4033 19.5011 22.6667L20.3264 20.6667H27.3424L28.1677 22.6667C28.1677 23.4033 27.6137 24 26.9297 24H26.5171C25.8331 24 25.2784 23.4033 25.2784 22.6667M22.1677 16C22.1677 13.794 20.3737 12 18.1677 12C15.9617 12 14.1671 13.794 14.1671 16C14.1671 18.206 15.9611 20 18.1671 20C20.3731 20 22.1671 18.206 22.1671 16H22.1677ZM26.9297 25.3333H26.5171C26.0684 25.3333 25.6464 25.2133 25.2797 25.0033C24.9117 25.2133 24.4897 25.3333 24.0417 25.3333H23.6291C23.1804 25.3333 22.7584 25.2133 22.3911 25.0033C22.0237 25.2133 21.6017 25.3333 21.1537 25.3333H20.7411C20.5437 25.3333 20.3537 25.3053 20.1697 25.2613V28H27.5031V25.2613C27.3184 25.3053 27.1284 25.3333 26.9317 25.3333H26.9297ZM18.1677 22.6667V22.4027L18.6091 21.3333H15.5011C13.6604 21.3333 12.1677 22.826 12.1677 24.6667V28H18.8344V24.4413C18.4244 23.9687 18.1677 23.3507 18.1677 22.6667Z" fill="white"/>
</g>
<defs>
<clipPath id="clip0_1583_657">
<rect width="16" height="16" fill="white" transform="translate(12.1667 12)"/>
</clipPath>
</defs>
</svg>
