<svg width="23" height="23" viewBox="0 0 23 23" fill="none" xmlns="http://www.w3.org/2000/svg">
<g clip-path="url(#clip0_1563_26024)">
<path d="M7.08342 0.686279H4.33342C3.36095 0.686279 2.42832 1.07259 1.74069 1.76022C1.05306 2.44785 0.666748 3.38049 0.666748 4.35295L0.666748 7.10295C0.666748 8.07541 1.05306 9.00804 1.74069 9.69567C2.42832 10.3833 3.36095 10.7696 4.33342 10.7696H7.08342C8.05588 10.7696 8.98851 10.3833 9.67614 9.69567C10.3638 9.00804 10.7501 8.07541 10.7501 7.10295V4.35295C10.7501 3.38049 10.3638 2.44785 9.67614 1.76022C8.98851 1.07259 8.05588 0.686279 7.08342 0.686279ZM8.91675 7.10295C8.91675 7.58918 8.72359 8.05549 8.37978 8.39931C8.03596 8.74312 7.56965 8.93628 7.08342 8.93628H4.33342C3.84718 8.93628 3.38087 8.74312 3.03705 8.39931C2.69324 8.05549 2.50008 7.58918 2.50008 7.10295V4.35295C2.50008 3.86672 2.69324 3.4004 3.03705 3.05658C3.38087 2.71277 3.84718 2.51961 4.33342 2.51961H7.08342C7.56965 2.51961 8.03596 2.71277 8.37978 3.05658C8.72359 3.4004 8.91675 3.86672 8.91675 4.35295V7.10295Z" fill="#3B82F6"/>
<path d="M19.0003 0.686279H16.2503C15.2778 0.686279 14.3452 1.07259 13.6576 1.76022C12.9699 2.44785 12.5836 3.38049 12.5836 4.35295V7.10295C12.5836 8.07541 12.9699 9.00804 13.6576 9.69567C14.3452 10.3833 15.2778 10.7696 16.2503 10.7696H19.0003C19.9727 10.7696 20.9054 10.3833 21.593 9.69567C22.2806 9.00804 22.667 8.07541 22.667 7.10295V4.35295C22.667 3.38049 22.2806 2.44785 21.593 1.76022C20.9054 1.07259 19.9727 0.686279 19.0003 0.686279ZM20.8336 7.10295C20.8336 7.58918 20.6405 8.05549 20.2966 8.39931C19.9528 8.74312 19.4865 8.93628 19.0003 8.93628H16.2503C15.7641 8.93628 15.2977 8.74312 14.9539 8.39931C14.6101 8.05549 14.417 7.58918 14.417 7.10295V4.35295C14.417 3.86672 14.6101 3.4004 14.9539 3.05658C15.2977 2.71277 15.7641 2.51961 16.2503 2.51961H19.0003C19.4865 2.51961 19.9528 2.71277 20.2966 3.05658C20.6405 3.4004 20.8336 3.86672 20.8336 4.35295V7.10295Z" fill="#3B82F6"/>
<path d="M7.08342 12.6025H4.33342C3.36095 12.6025 2.42832 12.9888 1.74069 13.6765C1.05306 14.3641 0.666748 15.2967 0.666748 16.2692L0.666748 19.0192C0.666748 19.9917 1.05306 20.9243 1.74069 21.6119C2.42832 22.2996 3.36095 22.6859 4.33342 22.6859H7.08342C8.05588 22.6859 8.98851 22.2996 9.67614 21.6119C10.3638 20.9243 10.7501 19.9917 10.7501 19.0192V16.2692C10.7501 15.2967 10.3638 14.3641 9.67614 13.6765C8.98851 12.9888 8.05588 12.6025 7.08342 12.6025ZM8.91675 19.0192C8.91675 19.5054 8.72359 19.9718 8.37978 20.3156C8.03596 20.6594 7.56965 20.8525 7.08342 20.8525H4.33342C3.84718 20.8525 3.38087 20.6594 3.03705 20.3156C2.69324 19.9718 2.50008 19.5054 2.50008 19.0192V16.2692C2.50008 15.783 2.69324 15.3167 3.03705 14.9728C3.38087 14.629 3.84718 14.4359 4.33342 14.4359H7.08342C7.56965 14.4359 8.03596 14.629 8.37978 14.9728C8.72359 15.3167 8.91675 15.783 8.91675 16.2692V19.0192Z" fill="#3B82F6"/>
<path d="M19.0003 12.6025H16.2503C15.2778 12.6025 14.3452 12.9888 13.6576 13.6765C12.9699 14.3641 12.5836 15.2967 12.5836 16.2692V19.0192C12.5836 19.9917 12.9699 20.9243 13.6576 21.6119C14.3452 22.2996 15.2778 22.6859 16.2503 22.6859H19.0003C19.9727 22.6859 20.9054 22.2996 21.593 21.6119C22.2806 20.9243 22.667 19.9917 22.667 19.0192V16.2692C22.667 15.2967 22.2806 14.3641 21.593 13.6765C20.9054 12.9888 19.9727 12.6025 19.0003 12.6025ZM20.8336 19.0192C20.8336 19.5054 20.6405 19.9718 20.2966 20.3156C19.9528 20.6594 19.4865 20.8525 19.0003 20.8525H16.2503C15.7641 20.8525 15.2977 20.6594 14.9539 20.3156C14.6101 19.9718 14.417 19.5054 14.417 19.0192V16.2692C14.417 15.783 14.6101 15.3167 14.9539 14.9728C15.2977 14.629 15.7641 14.4359 16.2503 14.4359H19.0003C19.4865 14.4359 19.9528 14.629 20.2966 14.9728C20.6405 15.3167 20.8336 15.783 20.8336 16.2692V19.0192Z" fill="#3B82F6"/>
</g>
<defs>
<clipPath id="clip0_1563_26024">
<rect width="22" height="22" fill="white" transform="translate(0.666748 0.686279)"/>
</clipPath>
</defs>
</svg>
