<svg width="23" height="23" viewBox="0 0 23 23" fill="none" xmlns="http://www.w3.org/2000/svg">
<g clip-path="url(#clip0_1563_26035)">
<path d="M11.6667 0.786255C5.65628 0.786255 0.766724 5.67581 0.766724 11.6863C0.766724 17.6967 5.65628 22.5863 11.6667 22.5863C17.6772 22.5863 22.5667 17.6967 22.5667 11.6863C22.5667 5.67581 17.6772 0.786255 11.6667 0.786255ZM11.6667 20.7696C6.65817 20.7696 2.58339 16.6948 2.58339 11.6863C2.58339 6.6777 6.65817 2.60292 11.6667 2.60292C16.6753 2.60292 20.7501 6.6777 20.7501 11.6863C20.7501 16.6948 16.6753 20.7696 11.6667 20.7696ZM15.3001 13.5029C15.3001 15.0053 14.0774 16.2279 12.5751 16.2279V17.1363C12.5751 17.6386 12.169 18.0446 11.6667 18.0446C11.1644 18.0446 10.7584 17.6386 10.7584 17.1363V16.2279H10.515C9.54577 16.2279 8.64107 15.7065 8.15511 14.8663C7.9035 14.4312 8.05247 13.8762 8.48574 13.6255C8.92083 13.3721 9.47673 13.5229 9.72652 13.9562C9.88912 14.2378 10.1907 14.4113 10.514 14.4113H12.5741C13.0755 14.4113 13.4825 14.0043 13.4825 13.5029C13.4825 13.1596 13.2363 12.8689 12.8975 12.8126L10.1353 12.3521C8.91629 12.1495 8.03248 11.1049 8.03248 9.86959C8.03248 8.3672 9.2551 7.14459 10.7575 7.14459V6.23625C10.7575 5.73485 11.1635 5.32792 11.6658 5.32792C12.1681 5.32792 12.5741 5.73485 12.5741 6.23625V7.14459H12.8176C13.7868 7.14459 14.6915 7.66688 15.1774 8.50709C15.429 8.94127 15.2801 9.49626 14.8468 9.74787C14.4108 9.99948 13.8558 9.85051 13.606 9.41633C13.4434 9.13565 13.1419 8.96216 12.8185 8.96216H10.7584C10.257 8.96216 9.85006 9.37 9.85006 9.8705C9.85006 10.2138 10.0962 10.5045 10.435 10.5608L13.1973 11.0214C14.4162 11.2239 15.3001 12.2685 15.3001 13.5038V13.5029Z" fill="#3B82F6"/>
</g>
<defs>
<clipPath id="clip0_1563_26035">
<rect width="22" height="22" fill="white" transform="translate(0.666748 0.686279)"/>
</clipPath>
</defs>
</svg>
