<svg width="23" height="23" viewBox="0 0 23 23" fill="none" xmlns="http://www.w3.org/2000/svg">
<g clip-path="url(#clip0_1563_26031)">
<path d="M19.2663 14.4983V8.81503C19.6168 8.68808 19.9476 8.49229 20.2283 8.21157L21.6265 6.81333C22.6502 5.78968 22.6502 4.12502 21.6265 3.10226L20.2283 1.70402C19.2037 0.679473 17.5391 0.681261 16.5172 1.70402L15.119 3.10226C14.8427 3.37851 14.6443 3.70751 14.5155 4.06422H8.86354C8.43798 2.30033 6.85647 0.980757 4.96294 0.980757C2.74399 0.979863 0.938965 2.78488 0.938965 5.00294C0.938965 6.74896 2.06364 8.22319 3.62102 8.77927V15.2841H3.44311C2.06274 15.2841 0.938965 16.407 0.938965 17.7874V19.933C0.938965 21.3134 2.06274 22.4363 3.44311 22.4363H5.58785C6.96822 22.4363 8.0911 21.3134 8.0911 19.933V17.7874C8.0911 16.407 6.96822 15.2841 5.58785 15.2841H5.40905V8.98042C7.13182 8.78642 8.53096 7.51871 8.89125 5.85047H14.5146C14.6434 6.20718 14.8418 6.53618 15.1181 6.81243L16.5163 8.21068C16.797 8.4914 17.1269 8.68719 17.4774 8.81414V14.4974C15.6894 14.906 14.3483 16.5018 14.3483 18.4123C14.3483 20.6304 16.1534 22.4354 18.3714 22.4354C20.5895 22.4354 22.3945 20.6304 22.3945 18.4123C22.3945 16.5018 21.0535 14.906 19.2654 14.4974L19.2663 14.4983ZM6.30307 17.7874V19.933C6.30307 20.3273 5.98301 20.6482 5.58785 20.6482H3.44311C3.04885 20.6482 2.727 20.3282 2.727 19.933V17.7874C2.727 17.3931 3.04795 17.0722 3.44311 17.0722H5.58785C5.98212 17.0722 6.30307 17.3922 6.30307 17.7874ZM4.96204 7.23798C3.72919 7.23798 2.727 6.2349 2.727 5.00294C2.727 3.77099 3.72919 2.7679 4.96204 2.7679C6.19489 2.7679 7.19709 3.77099 7.19709 5.00294C7.19709 6.2349 6.19489 7.23798 4.96204 7.23798ZM16.3822 5.54829C16.224 5.39005 16.1382 5.17996 16.1382 4.95645C16.1382 4.73295 16.2249 4.52285 16.3822 4.36461L17.7805 2.96637C17.9387 2.80813 18.1488 2.72141 18.3723 2.72141C18.5958 2.72141 18.805 2.80813 18.9632 2.96637L20.3615 4.36461C20.5197 4.52285 20.6065 4.73295 20.6065 4.95645C20.6065 5.17996 20.5188 5.39005 20.3615 5.54829L18.9632 6.94654C18.6468 7.26302 18.0952 7.26212 17.7805 6.94654L16.3822 5.54829ZM18.3723 20.6482C17.1395 20.6482 16.1373 19.6461 16.1373 18.4132C16.1373 17.1804 17.1395 16.1782 18.3723 16.1782C19.6052 16.1782 20.6073 17.1804 20.6073 18.4132C20.6073 19.6461 19.6052 20.6482 18.3723 20.6482Z" fill="#3B82F6"/>
</g>
<defs>
<clipPath id="clip0_1563_26031">
<rect width="22" height="22" fill="white" transform="translate(0.666748 0.686279)"/>
</clipPath>
</defs>
</svg>
