<svg width="23" height="23" viewBox="0 0 23 23" fill="none" xmlns="http://www.w3.org/2000/svg">
<g clip-path="url(#clip0_1563_26043)">
<path d="M11.6667 5.26961C11.3021 5.26961 10.9523 5.12475 10.6945 4.86688C10.4366 4.60902 10.2917 4.25929 10.2917 3.89461V2.06128C10.2917 1.69661 10.4366 1.34687 10.6945 1.08901C10.9523 0.831145 11.3021 0.686279 11.6667 0.686279C12.0314 0.686279 12.3812 0.831145 12.639 1.08901C12.8969 1.34687 13.0417 1.69661 13.0417 2.06128V3.89461C13.0417 4.25929 12.8969 4.60902 12.639 4.86688C12.3812 5.12475 12.0314 5.26961 11.6667 5.26961ZM13.0417 21.3113V19.4779C13.0417 19.1133 12.8969 18.7635 12.639 18.5057C12.3812 18.2478 12.0314 18.1029 11.6667 18.1029C11.3021 18.1029 10.9523 18.2478 10.6945 18.5057C10.4366 18.7635 10.2917 19.1133 10.2917 19.4779V21.3113C10.2917 21.676 10.4366 22.0257 10.6945 22.2836C10.9523 22.5414 11.3021 22.6863 11.6667 22.6863C12.0314 22.6863 12.3812 22.5414 12.639 22.2836C12.8969 22.0257 13.0417 21.676 13.0417 21.3113ZM5.25008 11.6863C5.25008 11.3216 5.10522 10.9719 4.84735 10.714C4.58949 10.4561 4.23975 10.3113 3.87508 10.3113H2.04175C1.67708 10.3113 1.32734 10.4561 1.06948 10.714C0.811614 10.9719 0.666748 11.3216 0.666748 11.6863C0.666748 12.051 0.811614 12.4007 1.06948 12.6586C1.32734 12.9164 1.67708 13.0613 2.04175 13.0613H3.87508C4.23975 13.0613 4.58949 12.9164 4.84735 12.6586C5.10522 12.4007 5.25008 12.051 5.25008 11.6863ZM22.6667 11.6863C22.6667 11.3216 22.5219 10.9719 22.264 10.714C22.0062 10.4561 21.6564 10.3113 21.2917 10.3113H19.4584C19.0937 10.3113 18.744 10.4561 18.4861 10.714C18.2283 10.9719 18.0834 11.3216 18.0834 11.6863C18.0834 12.051 18.2283 12.4007 18.4861 12.6586C18.744 12.9164 19.0937 13.0613 19.4584 13.0613H21.2917C21.6564 13.0613 22.0062 12.9164 22.264 12.6586C22.5219 12.4007 22.6667 12.051 22.6667 11.6863ZM16.6864 5.5712L17.5857 3.97345C17.7575 3.65632 17.7979 3.28436 17.6981 2.93775C17.5982 2.59114 17.3662 2.29763 17.052 2.1205C16.7378 1.94337 16.3666 1.8968 16.0183 1.99084C15.6701 2.08487 15.3728 2.31198 15.1904 2.6232L14.2902 4.22095C14.2015 4.37832 14.1447 4.55164 14.1229 4.731C14.1012 4.91036 14.1151 5.09224 14.1637 5.26625C14.2123 5.44026 14.2947 5.60298 14.4062 5.74512C14.5178 5.88725 14.6562 6.00601 14.8137 6.09461C15.019 6.21138 15.2512 6.27267 15.4874 6.27245C15.7315 6.27251 15.9713 6.20759 16.182 6.08435C16.3927 5.96111 16.5668 5.78399 16.6864 5.5712ZM8.14308 20.7494L9.04325 19.1516C9.2223 18.8339 9.2678 18.458 9.16972 18.1067C9.07165 17.7554 8.83804 17.4575 8.52029 17.2784C8.20254 17.0994 7.82667 17.0539 7.47538 17.1519C7.12408 17.25 6.82614 17.4836 6.64708 17.8014L5.74783 19.3991C5.57597 19.7162 5.5356 20.0882 5.63542 20.4348C5.73525 20.7814 5.96728 21.0749 6.2815 21.2521C6.59571 21.4292 6.96695 21.4758 7.31517 21.3817C7.6634 21.2877 7.96074 21.0606 8.14308 20.7494ZM6.07508 8.53936C6.25408 8.22172 6.2996 7.84599 6.20161 7.4948C6.10363 7.1436 5.87017 6.8457 5.55258 6.66661L3.95391 5.76736C3.63679 5.5955 3.26483 5.55513 2.91822 5.65495C2.5716 5.75478 2.2781 5.98681 2.10097 6.30103C1.92384 6.61524 1.87727 6.98648 1.97131 7.33471C2.06534 7.68294 2.29245 7.98027 2.60366 8.16261L4.20141 9.06278C4.35879 9.15152 4.53211 9.20837 4.71147 9.23009C4.89083 9.25181 5.07271 9.23797 5.24672 9.18936C5.42073 9.14075 5.58345 9.05833 5.72558 8.9468C5.86772 8.83527 5.98648 8.69682 6.07508 8.53936ZM21.2532 17.0827C21.4323 16.7651 21.4778 16.3893 21.3798 16.0381C21.2818 15.6869 21.0483 15.389 20.7307 15.2099L19.133 14.3098C18.9757 14.2211 18.8024 14.1643 18.6231 14.1426C18.4438 14.1209 18.262 14.1347 18.0881 14.1833C17.9141 14.2319 17.7515 14.3142 17.6093 14.4256C17.4672 14.5371 17.3484 14.6754 17.2598 14.8327C17.1711 14.9901 17.1143 15.1633 17.0926 15.3426C17.0709 15.5219 17.0848 15.7037 17.1333 15.8777C17.2314 16.2289 17.465 16.5269 17.7827 16.7059L19.3805 17.6052C19.6981 17.7842 20.0739 17.8297 20.4251 17.7317C20.7763 17.6337 21.0742 17.4003 21.2532 17.0827ZM8.51983 6.09461C8.83758 5.91568 9.07123 5.61785 9.16939 5.26664C9.26755 4.91543 9.22218 4.53962 9.04325 4.22186L8.14308 2.6232C7.96074 2.31198 7.6634 2.08487 7.31517 1.99084C6.96695 1.8968 6.59571 1.94337 6.2815 2.1205C5.96728 2.29763 5.73525 2.59114 5.63542 2.93775C5.5356 3.28436 5.57597 3.65632 5.74783 3.97345L6.64708 5.5712C6.76681 5.78382 6.94097 5.96076 7.15168 6.08383C7.36239 6.20691 7.60206 6.27169 7.84608 6.27153C8.08221 6.27203 8.31441 6.21106 8.51983 6.09461ZM17.0632 21.2728C17.3808 21.0937 17.6142 20.7958 17.7122 20.4446C17.8102 20.0934 17.7647 19.7177 17.5857 19.4L16.6864 17.8023C16.5074 17.4845 16.2094 17.2509 15.8581 17.1528C15.5068 17.0548 15.131 17.1003 14.8132 17.2793C14.4955 17.4584 14.2618 17.7563 14.1638 18.1076C14.0657 18.4589 14.1112 18.8348 14.2902 19.1525L15.1904 20.7503C15.3695 21.0679 15.6674 21.3013 16.0186 21.3993C16.3698 21.4973 16.7455 21.4518 17.0632 21.2728ZM19.1321 9.06278L20.7298 8.16261C21.041 7.98027 21.2682 7.68294 21.3622 7.33471C21.4562 6.98648 21.4097 6.61524 21.2325 6.30103C21.0554 5.98681 20.7619 5.75478 20.4153 5.65495C20.0687 5.55513 19.6967 5.5955 19.3796 5.76736L17.7818 6.66661C17.4641 6.84567 17.2305 7.14361 17.1324 7.49491C17.0343 7.8462 17.0798 8.22207 17.2589 8.53982C17.4379 8.85757 17.7359 9.09118 18.0872 9.18925C18.4385 9.28733 18.8143 9.24183 19.1321 9.06278ZM3.95391 17.6052L5.55166 16.7059C5.709 16.6173 5.84733 16.4985 5.95876 16.3564C6.07019 16.2143 6.15254 16.0516 6.2011 15.8777C6.24966 15.7037 6.26348 15.5219 6.24178 15.3426C6.22008 15.1633 6.16328 14.9901 6.07462 14.8327C5.98596 14.6754 5.86718 14.5371 5.72507 14.4256C5.58295 14.3142 5.42027 14.2319 5.24633 14.1833C5.07238 14.1347 4.89058 14.1209 4.71129 14.1426C4.53201 14.1643 4.35875 14.2211 4.20141 14.3098L2.60366 15.2099C2.33916 15.3594 2.13158 15.5922 2.01336 15.8721C1.89515 16.1519 1.87294 16.463 1.95021 16.7569C2.02749 17.0507 2.19989 17.3106 2.4405 17.4961C2.6811 17.6816 2.97636 17.7822 3.28016 17.7821C3.5163 17.7827 3.74851 17.7217 3.95391 17.6052Z" fill="#3B82F6"/>
</g>
<defs>
<clipPath id="clip0_1563_26043">
<rect width="22" height="22" fill="white" transform="translate(0.666748 0.686279)"/>
</clipPath>
</defs>
</svg>
