<svg width="22" height="22" viewBox="0 0 22 22" fill="none" xmlns="http://www.w3.org/2000/svg">
<g clip-path="url(#clip0_1694_16392)">
<path d="M11 4.58333C10.6353 4.58333 10.2856 4.43847 10.0277 4.18061C9.76987 3.92274 9.625 3.57301 9.625 3.20833V1.375C9.625 1.01033 9.76987 0.660591 10.0277 0.402728C10.2856 0.144866 10.6353 0 11 0C11.3647 0 11.7144 0.144866 11.9723 0.402728C12.2301 0.660591 12.375 1.01033 12.375 1.375V3.20833C12.375 3.57301 12.2301 3.92274 11.9723 4.18061C11.7144 4.43847 11.3647 4.58333 11 4.58333ZM12.375 20.625V18.7917C12.375 18.427 12.2301 18.0773 11.9723 17.8194C11.7144 17.5615 11.3647 17.4167 11 17.4167C10.6353 17.4167 10.2856 17.5615 10.0277 17.8194C9.76987 18.0773 9.625 18.427 9.625 18.7917V20.625C9.625 20.9897 9.76987 21.3394 10.0277 21.5973C10.2856 21.8551 10.6353 22 11 22C11.3647 22 11.7144 21.8551 11.9723 21.5973C12.2301 21.3394 12.375 20.9897 12.375 20.625ZM4.58333 11C4.58333 10.6353 4.43847 10.2856 4.18061 10.0277C3.92274 9.76987 3.57301 9.625 3.20833 9.625H1.375C1.01033 9.625 0.660591 9.76987 0.402728 10.0277C0.144866 10.2856 0 10.6353 0 11C0 11.3647 0.144866 11.7144 0.402728 11.9723C0.660591 12.2301 1.01033 12.375 1.375 12.375H3.20833C3.57301 12.375 3.92274 12.2301 4.18061 11.9723C4.43847 11.7144 4.58333 11.3647 4.58333 11ZM22 11C22 10.6353 21.8551 10.2856 21.5973 10.0277C21.3394 9.76987 20.9897 9.625 20.625 9.625H18.7917C18.427 9.625 18.0773 9.76987 17.8194 10.0277C17.5615 10.2856 17.4167 10.6353 17.4167 11C17.4167 11.3647 17.5615 11.7144 17.8194 11.9723C18.0773 12.2301 18.427 12.375 18.7917 12.375H20.625C20.9897 12.375 21.3394 12.2301 21.5973 11.9723C21.8551 11.7144 22 11.3647 22 11ZM16.0197 4.88492L16.9189 3.28717C17.0908 2.97004 17.1312 2.59808 17.0313 2.25147C16.9315 1.90486 16.6995 1.61135 16.3853 1.43422C16.071 1.25709 15.6998 1.21053 15.3516 1.30456C15.0033 1.39859 14.706 1.6257 14.5237 1.93692L13.6235 3.53467C13.5348 3.69204 13.4779 3.86536 13.4562 4.04472C13.4345 4.22408 13.4483 4.40596 13.4969 4.57997C13.5455 4.75398 13.628 4.9167 13.7395 5.05884C13.851 5.20097 13.9895 5.31973 14.1469 5.40833C14.3523 5.5251 14.5845 5.58639 14.8207 5.58617C15.0648 5.58623 15.3045 5.52131 15.5152 5.39807C15.7259 5.27483 15.9001 5.09771 16.0197 4.88492ZM7.47633 20.0631L8.3765 18.4653C8.55555 18.1476 8.60105 17.7717 8.50297 17.4204C8.4049 17.0691 8.17129 16.7712 7.85354 16.5921C7.53579 16.4131 7.15992 16.3676 6.80863 16.4657C6.45733 16.5637 6.15939 16.7973 5.98033 17.1151L5.08108 18.7128C4.90922 19.03 4.86885 19.4019 4.96867 19.7485C5.0685 20.0951 5.30053 20.3886 5.61475 20.5658C5.92896 20.7429 6.3002 20.7895 6.64843 20.6954C6.99666 20.6014 7.29399 20.3743 7.47633 20.0631ZM5.40833 7.85308C5.58734 7.53544 5.63285 7.15971 5.53487 6.80852C5.43688 6.45732 5.20342 6.15942 4.88583 5.98033L3.28717 5.08108C2.97004 4.90922 2.59808 4.86885 2.25147 4.96867C1.90486 5.0685 1.61135 5.30053 1.43422 5.61475C1.25709 5.92896 1.21053 6.3002 1.30456 6.64843C1.39859 6.99666 1.6257 7.29399 1.93692 7.47633L3.53467 8.3765C3.69204 8.46524 3.86536 8.52209 4.04472 8.54381C4.22408 8.56553 4.40596 8.55169 4.57997 8.50308C4.75398 8.45447 4.9167 8.37205 5.05884 8.26052C5.20097 8.14899 5.31973 8.01054 5.40833 7.85308ZM20.5865 16.3964C20.7655 16.0788 20.811 15.703 20.713 15.3519C20.6151 15.0007 20.3816 14.7028 20.064 14.5237L18.4663 13.6235C18.3089 13.5348 18.1357 13.478 17.9564 13.4563C17.7771 13.4346 17.5953 13.4485 17.4213 13.497C17.2474 13.5456 17.0847 13.6279 16.9426 13.7394C16.8005 13.8508 16.6817 13.9891 16.593 14.1465C16.5044 14.3038 16.4476 14.4771 16.4259 14.6563C16.4042 14.8356 16.418 15.0174 16.4666 15.1914C16.5646 15.5427 16.7982 15.8406 17.116 16.0197L18.7138 16.9189C19.0314 17.0979 19.4071 17.1434 19.7583 17.0454C20.1095 16.9475 20.4074 16.714 20.5865 16.3964ZM7.85308 5.40833C8.17083 5.2294 8.40449 4.93157 8.50264 4.58036C8.6008 4.22915 8.55543 3.85334 8.3765 3.53558L7.47633 1.93692C7.29399 1.6257 6.99666 1.39859 6.64843 1.30456C6.3002 1.21053 5.92896 1.25709 5.61475 1.43422C5.30053 1.61135 5.0685 1.90486 4.96867 2.25147C4.86885 2.59808 4.90922 2.97004 5.08108 3.28717L5.98033 4.88492C6.10007 5.09754 6.27423 5.27448 6.48494 5.39755C6.69565 5.52063 6.93531 5.58541 7.17933 5.58525C7.41547 5.58575 7.64766 5.52478 7.85308 5.40833ZM16.3964 20.5865C16.714 20.4074 16.9475 20.1095 17.0454 19.7583C17.1434 19.4071 17.0979 19.0314 16.9189 18.7138L16.0197 17.116C15.8406 16.7982 15.5427 16.5646 15.1914 16.4666C14.8401 16.3685 14.4642 16.414 14.1465 16.593C13.8287 16.7721 13.5951 17.07 13.497 17.4213C13.399 17.7726 13.4444 18.1485 13.6235 18.4663L14.5237 20.064C14.7028 20.3816 15.0007 20.6151 15.3519 20.713C15.703 20.811 16.0788 20.7655 16.3964 20.5865ZM18.4653 8.3765L20.0631 7.47633C20.3743 7.29399 20.6014 6.99666 20.6954 6.64843C20.7895 6.3002 20.7429 5.92896 20.5658 5.61475C20.3886 5.30053 20.0951 5.0685 19.7485 4.96867C19.4019 4.86885 19.03 4.90922 18.7128 5.08108L17.1151 5.98033C16.7973 6.15939 16.5637 6.45733 16.4657 6.80863C16.3676 7.15992 16.4131 7.53579 16.5921 7.85354C16.7712 8.17129 17.0691 8.4049 17.4204 8.50297C17.7717 8.60105 18.1476 8.55555 18.4653 8.3765ZM3.28717 16.9189L4.88492 16.0197C5.04225 15.931 5.18058 15.8122 5.29201 15.6701C5.40344 15.528 5.48579 15.3653 5.53435 15.1914C5.58291 15.0174 5.59674 14.8356 5.57504 14.6563C5.55333 14.4771 5.49653 14.3038 5.40788 14.1465C5.31922 13.9891 5.20044 13.8508 5.05832 13.7394C4.9162 13.6279 4.75352 13.5456 4.57958 13.497C4.40564 13.4485 4.22383 13.4346 4.04454 13.4563C3.86526 13.478 3.692 13.5348 3.53467 13.6235L1.93692 14.5237C1.67241 14.6731 1.46483 14.9059 1.34662 15.1858C1.2284 15.4656 1.20619 15.7768 1.28347 16.0706C1.36074 16.3644 1.53314 16.6243 1.77375 16.8098C2.01436 16.9953 2.30962 17.0959 2.61342 17.0958C2.84955 17.0964 3.08176 17.0354 3.28717 16.9189Z" fill="#3B82F6"/>
</g>
<defs>
<clipPath id="clip0_1694_16392">
<rect width="22" height="22" fill="white"/>
</clipPath>
</defs>
</svg>
