<svg width="24" height="24" viewBox="0 0 24 24" fill="none" xmlns="http://www.w3.org/2000/svg">
<path d="M8.49978 9.49991C8.49978 10.0509 8.62778 10.5729 8.85578 11.0369C8.36578 11.6649 8.06078 12.4439 8.01978 13.2929C7.07878 12.3049 6.49978 10.9689 6.49978 9.50091C6.49978 6.08991 9.62178 3.39391 13.1588 4.11991C15.2408 4.54791 16.9278 6.22491 17.3718 8.30391C17.5058 8.93191 17.5308 9.54691 17.4628 10.1349C17.4048 10.6329 16.9678 11.0009 16.4658 11.0009H16.4208C15.8288 11.0009 15.4128 10.4739 15.4778 9.88591C15.5218 9.49091 15.4988 9.07591 15.3978 8.65291C15.0998 7.39991 14.0778 6.38491 12.8228 6.09591C10.5368 5.57091 8.49878 7.30291 8.49878 9.50091L8.49978 9.49991ZM4.60978 8.20491C4.88378 6.61191 5.66278 5.15991 6.87078 4.02691C8.39978 2.59391 10.4018 1.88591 12.5008 2.01591C16.4538 2.27191 19.5448 5.73491 19.4988 9.88091C19.4798 11.6169 18.0258 12.9989 16.2908 12.9989H13.8848C13.6408 12.1699 12.8828 11.5599 11.9748 11.5599C10.8698 11.5599 9.97478 12.4549 9.97478 13.5599C9.97478 14.6649 10.8698 15.5599 11.9748 15.5599C12.5128 15.5599 12.9998 15.3449 13.3588 14.9989H16.2908C19.1098 14.9989 21.4588 12.7539 21.4988 9.93591C21.5728 4.71491 17.6508 0.34491 12.6298 0.0209097C9.96578 -0.15209 7.43878 0.75291 5.50378 2.56891C4.00478 3.97391 3.00778 5.83391 2.64878 7.83491C2.53978 8.44291 3.02078 9.00091 3.63778 9.00091C4.10978 9.00091 4.53078 8.67191 4.60978 8.20591V8.20491ZM11.9998 16.9999C8.30478 16.9999 5.10778 19.2919 4.04478 22.7019C3.87978 23.2289 4.17478 23.7899 4.70178 23.9549C5.22778 24.1139 5.78878 23.8239 5.95378 23.2979C6.74278 20.7679 9.22778 18.9999 11.9988 18.9999C14.7698 18.9999 17.2558 20.7679 18.0438 23.2979C18.1778 23.7259 18.5718 23.9999 18.9988 23.9999C19.0978 23.9999 19.1968 23.9849 19.2968 23.9549C19.8238 23.7899 20.1178 23.2289 19.9538 22.7019C18.8908 19.2919 15.6938 16.9999 11.9988 16.9999H11.9998Z" fill="white"/>
</svg>
