<svg width="23" height="23" viewBox="0 0 23 23" fill="none" xmlns="http://www.w3.org/2000/svg">
<g clip-path="url(#clip0_1563_26039)">
<path d="M7.54175 13.0151C6.7259 13.0151 5.92837 12.7731 5.25002 12.3199C4.57167 11.8666 4.04296 11.2224 3.73075 10.4686C3.41853 9.71488 3.33684 8.88548 3.49601 8.08531C3.65517 7.28514 4.04804 6.55013 4.62493 5.97324C5.20182 5.39635 5.93683 5.00348 6.737 4.84432C7.53717 4.68515 8.36657 4.76684 9.12032 5.07905C9.87406 5.39127 10.5183 5.91998 10.9716 6.59833C11.4248 7.27668 11.6667 8.07421 11.6667 8.89006C11.6655 9.9837 11.2305 11.0322 10.4572 11.8055C9.6839 12.5789 8.63539 13.0138 7.54175 13.0151ZM7.54175 6.59839C7.0885 6.59839 6.64543 6.73279 6.26857 6.98461C5.8917 7.23642 5.59797 7.59433 5.42452 8.01307C5.25107 8.43182 5.20569 8.8926 5.29412 9.33714C5.38254 9.78168 5.6008 10.19 5.9213 10.5105C6.24179 10.831 6.65013 11.0493 7.09467 11.1377C7.53921 11.2261 7.99998 11.1807 8.41873 11.0073C8.83748 10.8338 9.19539 10.5401 9.4472 10.1632C9.69901 9.78638 9.83342 9.34331 9.83342 8.89006C9.83342 8.28227 9.59197 7.69938 9.1622 7.2696C8.73243 6.83983 8.14954 6.59839 7.54175 6.59839ZM14.4167 22.1817V21.7234C14.4167 19.9 13.6924 18.1513 12.4031 16.862C11.1138 15.5727 9.36511 14.8484 7.54175 14.8484C5.71838 14.8484 3.9697 15.5727 2.68039 16.862C1.39108 18.1513 0.666748 19.9 0.666748 21.7234L0.666748 22.1817C0.666748 22.4248 0.763325 22.658 0.935234 22.8299C1.10714 23.0018 1.3403 23.0984 1.58341 23.0984C1.82653 23.0984 2.05969 23.0018 2.2316 22.8299C2.4035 22.658 2.50008 22.4248 2.50008 22.1817V21.7234C2.50008 20.3863 3.03126 19.1039 3.97675 18.1584C4.92225 17.2129 6.20462 16.6817 7.54175 16.6817C8.87888 16.6817 10.1612 17.2129 11.1067 18.1584C12.0522 19.1039 12.5834 20.3863 12.5834 21.7234V22.1817C12.5834 22.4248 12.68 22.658 12.8519 22.8299C13.0238 23.0018 13.257 23.0984 13.5001 23.0984C13.7432 23.0984 13.9764 23.0018 14.1483 22.8299C14.3202 22.658 14.4167 22.4248 14.4167 22.1817ZM22.6667 17.5984C22.6667 16.3597 22.3081 15.1475 21.6343 14.1081C20.9605 13.0687 20.0002 12.2465 18.8694 11.7409C17.7386 11.2352 16.4856 11.0677 15.2617 11.2585C14.0378 11.4493 12.8952 11.9903 11.972 12.8161C11.881 12.8961 11.8068 12.9932 11.7536 13.102C11.7004 13.2108 11.6693 13.329 11.6621 13.4499C11.6548 13.5708 11.6716 13.6919 11.7114 13.8063C11.7513 13.9206 11.8134 14.026 11.8941 14.1162C11.9749 14.2064 12.0728 14.2797 12.182 14.3319C12.2913 14.3841 12.4098 14.4141 12.5308 14.4202C12.6517 14.4263 12.7727 14.4084 12.8866 14.3675C13.0006 14.3267 13.1054 14.2636 13.1948 14.182C13.8543 13.5922 14.6704 13.2059 15.5446 13.0697C16.4188 12.9336 17.3137 13.0533 18.1214 13.4145C18.929 13.7758 19.6148 14.363 20.0961 15.1054C20.5773 15.8478 20.8334 16.7137 20.8334 17.5984C20.8334 17.8415 20.93 18.0747 21.1019 18.2466C21.2738 18.4185 21.507 18.5151 21.7501 18.5151C21.9932 18.5151 22.2264 18.4185 22.3983 18.2466C22.5702 18.0747 22.6667 17.8415 22.6667 17.5984ZM16.7084 9.34839C15.8926 9.34839 15.095 9.10646 14.4167 8.6532C13.7383 8.19994 13.2096 7.55571 12.8974 6.80196C12.5852 6.04821 12.5035 5.21881 12.6627 4.41864C12.8218 3.61847 13.2147 2.88347 13.7916 2.30658C14.3685 1.72968 15.1035 1.33682 15.9037 1.17765C16.7038 1.01849 17.5332 1.10018 18.287 1.41239C19.0407 1.7246 19.685 2.25331 20.1382 2.93166C20.5915 3.61002 20.8334 4.40754 20.8334 5.22339C20.8322 6.31704 20.3972 7.36554 19.6239 8.13887C18.8506 8.91219 17.8021 9.34718 16.7084 9.34839ZM16.7084 2.93172C16.2552 2.93172 15.8121 3.06613 15.4352 3.31794C15.0584 3.56975 14.7646 3.92766 14.5912 4.34641C14.4177 4.76515 14.3724 5.22593 14.4608 5.67047C14.5492 6.11501 14.7675 6.52335 15.088 6.84384C15.4085 7.16434 15.8168 7.3826 16.2613 7.47102C16.7059 7.55945 17.1667 7.51407 17.5854 7.34061C18.0041 7.16716 18.3621 6.87344 18.6139 6.49657C18.8657 6.11971 19.0001 5.67664 19.0001 5.22339C19.0001 4.6156 18.7586 4.03271 18.3289 3.60294C17.8991 3.17317 17.3162 2.93172 16.7084 2.93172Z" fill="#3B82F6"/>
</g>
<defs>
<clipPath id="clip0_1563_26039">
<rect width="22" height="22" fill="white" transform="translate(0.666748 0.686279)"/>
</clipPath>
</defs>
</svg>
